<svg width="256" height="256" viewBox="0 0 256 256" fill="none" xmlns="http://www.w3.org/2000/svg">
  <rect width="256" height="256" rx="64" fill="#001e40"/>
  <path d="M128 40C88 100 60 140 60 170C60 207.555 90.4446 238 128 238C165.555 238 196 207.555 196 170C196 140 168 100 128 40Z" fill="#006c4a"/>
  <circle cx="128" cy="180" r="30" fill="white" opacity="0.3"/>
  <path d="M128 80C104 125 85 155 85 170C85 193.748 104.252 213 128 213C151.748 213 171 193.748 171 170C171 155 152 125 128 80Z" fill="white"/>
</svg>
